<svg xmlns="http://www.w3.org/2000/svg" width="256" height="256" viewBox="0 0 256 256">
  <rect width="256" height="256" rx="57.27" ry="57.27" fill="#FFFFFF"></rect>
  <g transform="translate(54.016 54.016) scale(0.254081)">
  <polygon fill="#502F69" points="387.348 129.669 307.335 129.669 267.329 198.962 307.335 268.256 387.348 268.256 427.355 198.962 387.348 129.669"></polygon>
  <polygon fill="#502F69" points="228.561 221.538 148.548 221.538 108.541 290.831 148.548 360.124 228.561 360.124 268.567 290.831 228.561 221.538"></polygon>
  <path fill="#502F69" d="M129.286,533.844l34.806-60.447c-57.184-40.171-94.565-106.625-94.565-181.817s37.413-141.702,94.638-181.868l-34.805-60.445C51.35,101.595,0,190.588,0,291.58s51.318,189.929,129.286,242.264Z"></path>
  <path fill="#502F69" d="M202.872,87.973c27.172-11.855,57.169-18.445,88.709-18.445,114.93,0,209.465,87.314,220.893,199.227h69.803C570.633,118.389,444.935,0,291.582,0c-44.177,0-86.049,9.843-123.572,27.427l34.863,60.546h-.001Z"></path>
  <path fill="#502F69" d="M512.588,313.145c-10.845,112.516-105.647,200.489-221.008,200.489-31.572,0-61.597-6.604-88.791-18.481l-34.862,60.544c37.543,17.608,79.444,27.465,123.653,27.465,153.781,0,279.748-119.051,290.785-270.016h-69.777Z"></path>
  <polygon fill="#502F69" points="387.348 312.409 307.335 312.409 267.329 381.703 307.335 450.996 387.348 450.996 427.355 381.703 387.348 312.409"></polygon>
  </g>
</svg>